<svg xmlns="http://www.w3.org/2000/svg" viewBox="0 0 305.46 305.46">
	<defs>
		<style>
			.cls-1 {
				fill:#ffffff2e;
			}
		</style>
	</defs>
	<title>
		oam_logo_white_1
	</title>
	<g id="Layer_2" data-name="Layer 2">
		<g id="Layer_1-2" data-name="Layer 1">
			<path class="cls-1" d="M152.73,305.46C68.51,305.46,0,236.95,0,152.73S68.51,0,152.73,0,305.46,68.51,305.46,152.73,236.95,305.46,152.73,305.46m0-293.39c-77.56,0-140.66,63.1-140.66,140.66s63.1,140.66,140.66,140.66,140.66-63.1,140.66-140.66S230.29,12.07,152.73,12.07"/>
			<path class="cls-1" d="M152.79,99.64,61.92,248.13a132,132,0,0,0,181.7,0Zm0,105.24-25.25,43.4H98l54.78-90.69,55.86,90.69h-30Z"/>
			<path class="cls-1" d="M152.74,45.14l110,180.12a132,132,0,0,0-110-204.88c-72.85,0-132.27,59.15-132.08,132a131.38,131.38,0,0,0,21.9,72.88Z"/>
		</g>
	</g>
</svg>